<?xml version="1.0" encoding="UTF-8" standalone="no"?>
<svg xmlns="http://www.w3.org/2000/svg" height="504" width="720" version="1.0" viewBox="0 0 720 504">
<rect height="504" width="720" fill="#009b3a"/>
<path d="M360,252 l229.4,-164.8 l-280.6,-0.3 l229.4,164.8 l-88.2,272.1 z" fill="#fedf00"/>
<circle r="166.5" cy="252" cx="360" fill="#002776"/>
<clipPath id="band">
<circle r="166.5" cy="252" cx="360"/>
</clipPath>
<path clip-path="url(#band)" fill="#fff" d="M130,265 l600,0 l0,24 l-600,0z"/>
<g fill="#009b3a">
<path d="M251.4,265.7 a165,165 0 0 1 217.2,0 a162,162 0 0 0 -217.2,0z"/>
<path d="M251.4,265.7 a165,165 0 0 0 217.2,0 a162,162 0 0 1 -217.2,0z"/>
</g>
<g fill="#fff" transform="translate(360,252)">
<g id="c">
<path id="t" d="M0,-24 l0,24 h3z" transform="rotate(15)"/>
<use transform="scale(-1,1)" xlink:href="#t"/>
</g>
<use transform="rotate(30)" xlink:href="#c"/>
<use transform="rotate(60)" xlink:href="#c"/>
<use transform="rotate(90)" xlink:href="#c"/>
<use transform="rotate(120)" xlink:href="#c"/>
<use transform="rotate(150)" xlink:href="#c"/>
<use transform="rotate(180)" xlink:href="#c"/>
<use transform="rotate(210)" xlink:href="#c"/>
<use transform="rotate(240)" xlink:href="#c"/>
</g>
</svg>
