<?xml version="1.0" encoding="UTF-8" standalone="no"?>
<svg xmlns="http://www.w3.org/2000/svg" width="1200" height="600" viewBox="0 0 9600 4800">
  <rect width="9600" height="4800" fill="#ff0000"/>
  <rect width="2400" height="4800" x="3600" y="0" fill="#ffffff"/>
  <path d="M 4800,1000 L 4750,1050 L 4700,1000 L 4650,1100 L 4600,1000 L 4500,1150 L 4500,1350 L 4600,1350 L 4625,1450 L 4700,1400 L 4750,1450 L 4800,1400 L 4850,1450 L 4900,1400 L 4975,1450 L 5000,1350 L 5100,1350 L 5100,1150 L 5000,1000 L 4950,1100 L 4900,1000 L 4850,1050 L 4800,1000 Z" fill="#ff0000"/>
  <path d="M 4800,2100 L 4400,2600 L 4400,3100 L 4600,3100 L 4600,3600 L 5000,3600 L 5000,3100 L 5200,3100 L 5200,2600 L 4800,2100 Z" fill="#ff0000"/>
</svg>
