<?xml version="1.0" encoding="UTF-8"?>
<svg xmlns="http://www.w3.org/2000/svg" width="810" height="540" viewBox="0 0 810 540">
  <rect width="810" height="540" fill="#039"/>
  <g fill="#fc0">
    <path d="M405,142.5 l8.8,27h28.4l-23,16.7 8.8,27-23-16.7-23,16.7 8.8-27-23-16.7h28.4z"/>
    <path d="M405,142.5 l8.8,27h28.4l-23,16.7 8.8,27-23-16.7-23,16.7 8.8-27-23-16.7h28.4z" transform="rotate(36,405,270)"/>
    <path d="M405,142.5 l8.8,27h28.4l-23,16.7 8.8,27-23-16.7-23,16.7 8.8-27-23-16.7h28.4z" transform="rotate(72,405,270)"/>
    <path d="M405,142.5 l8.8,27h28.4l-23,16.7 8.8,27-23-16.7-23,16.7 8.8-27-23-16.7h28.4z" transform="rotate(108,405,270)"/>
    <path d="M405,142.5 l8.8,27h28.4l-23,16.7 8.8,27-23-16.7-23,16.7 8.8-27-23-16.7h28.4z" transform="rotate(144,405,270)"/>
    <path d="M405,142.5 l8.8,27h28.4l-23,16.7 8.8,27-23-16.7-23,16.7 8.8-27-23-16.7h28.4z" transform="rotate(180,405,270)"/>
    <path d="M405,142.5 l8.8,27h28.4l-23,16.7 8.8,27-23-16.7-23,16.7 8.8-27-23-16.7h28.4z" transform="rotate(216,405,270)"/>
    <path d="M405,142.5 l8.8,27h28.4l-23,16.7 8.8,27-23-16.7-23,16.7 8.8-27-23-16.7h28.4z" transform="rotate(252,405,270)"/>
    <path d="M405,142.5 l8.8,27h28.4l-23,16.7 8.8,27-23-16.7-23,16.7 8.8-27-23-16.7h28.4z" transform="rotate(288,405,270)"/>
    <path d="M405,142.5 l8.8,27h28.4l-23,16.7 8.8,27-23-16.7-23,16.7 8.8-27-23-16.7h28.4z" transform="rotate(324,405,270)"/>
  </g>
</svg>
