<?xml version="1.0" encoding="UTF-8"?>
<!DOCTYPE svg PUBLIC "-//W3C//DTD SVG 1.1//EN" "http://www.w3.org/Graphics/SVG/1.1/DTD/svg11.dtd">
<!-- Creator: CorelDRAW -->
<svg xmlns="http://www.w3.org/2000/svg" xml:space="preserve" width="2112px" height="307px" version="1.1" style="shape-rendering:geometricPrecision; text-rendering:geometricPrecision; image-rendering:optimizeQuality; fill-rule:evenodd; clip-rule:evenodd"
viewBox="0 0 1974.38 286.99"
 xmlns:xlink="http://www.w3.org/1999/xlink"
 xmlns:xodm="http://www.corel.com/coreldraw/odm/2003">
 <defs>
  <style type="text/css">
   <![CDATA[
    .str0 {stroke:black;stroke-width:0.84;stroke-miterlimit:22.9256}
    .fil4 {fill:none}
    .fil3 {fill:none;fill-rule:nonzero}
    .fil2 {fill:#181848;fill-rule:nonzero}
    .fil0 {fill:url(#id2)}
    .fil1 {fill:url(#id3)}
   ]]>
  </style>
    <clipPath id="id0" style="clip-rule:nonzero">
     <path d="M530.5 224.5c32.64,0 63.88,-17.3 77.83,-46.59l-33.2 -18.7c-8.64,16.18 -23.71,26.51 -46.31,26.51 -31.52,0 -53.84,-24.83 -53.84,-58.87 0,-34.04 22.59,-58.87 53.84,-58.87 22.6,0 37.11,10.33 46.31,26.51l33.2 -18.7c-13.95,-29.29 -45.19,-46.59 -77.83,-46.59 -54.69,0 -97.37,43.25 -97.37,97.65 0,54.4 42.68,97.65 97.37,97.65zm938.59 -3.91l0 -74.77 85.65 0 0 74.77 40.74 0 0 -187.76 -40.74 0 0 75.61 -85.65 0 0 -75.61 -40.73 0 0 187.76 40.73 0zm-793.6 3.63c18.97,0 34.04,-7.53 43.8,-19.81l0 16.18 37.67 0 0 -69.47c0,-41.57 -31.81,-72.81 -75.05,-72.81 -42.41,0 -74.77,33.2 -74.77,72.81 0,40.18 28.18,73.1 68.35,73.1zm6.42 -37.11c-20.37,0 -35.15,-16.18 -35.15,-35.71 0,-19.53 14.78,-35.71 35.15,-35.71 20.36,0 35.43,16.18 35.43,35.71 0,19.53 -15.07,35.71 -35.43,35.71zm267.47 -109.64c-24.83,0 -44.36,11.72 -53.01,30.69 -8.09,-18.97 -27.34,-30.69 -53.84,-30.69 -44.64,0 -67.24,32.36 -67.24,70.86l0 72.26 39.62 0 0 -65.84c0,-20.93 8.64,-38.78 30.68,-38.78 21.49,0 30.69,17.58 30.69,38.78l0 65.84 39.62 0 0 -66.12c0,-20.92 9.21,-38.5 30.69,-38.5 21.76,0 30.97,17.85 30.97,39.06l0 65.56 39.61 0 0 -72.26c0,-38.5 -22.87,-70.86 -67.79,-70.86zm160.9 147.03c42.68,0 74.77,-32.92 74.77,-72.82 0,-42.96 -29.58,-73.1 -72.54,-73.1 -13.95,0 -27.06,5.03 -37.39,12.84l0 -72.54 -39.61 0 0 132.8c0,41.85 31.8,72.82 74.77,72.82zm0 -37.39c-20.37,0 -35.16,-15.9 -35.16,-35.43 0,-19.53 14.79,-35.71 35.16,-35.71 20.36,0 35.15,16.18 35.15,35.71 0,19.53 -14.79,35.43 -35.15,35.43zm111.79 -125.26c13.39,0 24.27,-10.88 24.27,-24.56 0,-13.39 -10.88,-24.55 -24.27,-24.55 -13.39,0 -24.55,11.16 -24.55,24.55 0,13.68 11.16,24.56 24.55,24.56zm-19.81 20.64l0 138.1 39.62 0 0 -138.1 -39.62 0zm131.33 141.73c42.4,0 75.04,-32.92 75.04,-73.1 0,-39.61 -32.36,-72.81 -75.04,-72.81 -42.13,0 -74.77,32.92 -74.77,72.81 0,40.18 32.36,73.1 74.77,73.1zm0 -37.11c-20.37,0 -35.16,-16.18 -35.16,-35.71 0,-19.53 14.79,-35.71 35.16,-35.71 20.36,0 35.43,16.18 35.43,35.71 0,19.53 -15.07,35.71 -35.43,35.71zm356.66 37.11c42.41,0 75.05,-32.92 75.05,-73.1 0,-39.61 -32.36,-72.81 -75.05,-72.81 -42.12,0 -74.77,32.92 -74.77,72.81 0,40.18 32.37,73.1 74.77,73.1zm0 -37.11c-20.36,0 -35.15,-16.18 -35.15,-35.71 0,-19.53 14.79,-35.71 35.15,-35.71 20.37,0 35.44,16.18 35.44,35.71 0,19.53 -15.07,35.71 -35.44,35.71zm112.08 -125.26c13.39,0 24.27,-10.88 24.27,-24.56 0,-13.39 -10.88,-24.55 -24.27,-24.55 -13.39,0 -24.55,11.16 -24.55,24.55 0,13.68 11.16,24.56 24.55,24.56zm-20.09 20.64l0 143.96c0,13.67 -8.65,23.16 -26.5,23.16l2.23 37.38c41.57,0 63.89,-24.27 63.89,-59.14l0 -145.36 -39.62 0zm126.58 141.73c29.3,0 52.17,-14.23 64.17,-39.06l-30.41 -15.34c-6.42,12.83 -18.97,20.08 -34.04,20.08 -19.81,0 -34.03,-12.27 -36.82,-30.69l102.66 0 0 -11.71c0,-37.67 -25.38,-70.03 -69.19,-70.03 -42.68,0 -71.7,32.92 -71.7,72.82 0,44.08 32.37,73.93 75.33,73.93zm-35.43 -87.05c2.79,-13.95 14.23,-25.11 31.53,-25.11 16.74,0 28.45,10.88 30.13,25.11l-61.66 0z"/>
    </clipPath>
    <clipPath id="id1">
     <path d="M530.5 224.5c32.64,0 63.88,-17.3 77.83,-46.59l-33.2 -18.7c-8.64,16.18 -23.71,26.51 -46.31,26.51 -31.52,0 -53.84,-24.83 -53.84,-58.87 0,-34.04 22.59,-58.87 53.84,-58.87 22.6,0 37.11,10.33 46.31,26.51l33.2 -18.7c-13.95,-29.29 -45.19,-46.59 -77.83,-46.59 -54.69,0 -97.37,43.25 -97.37,97.65 0,54.4 42.68,97.65 97.37,97.65zm938.59 -3.91l0 -74.77 85.65 0 0 74.77 40.74 0 0 -187.76 -40.74 0 0 75.61 -85.65 0 0 -75.61 -40.73 0 0 187.76 40.73 0zm-793.6 3.63c18.97,0 34.04,-7.53 43.8,-19.81l0 16.18 37.67 0 0 -69.47c0,-41.57 -31.81,-72.81 -75.05,-72.81 -42.41,0 -74.77,33.2 -74.77,72.81 0,40.18 28.18,73.1 68.35,73.1zm6.42 -37.11c-20.37,0 -35.15,-16.18 -35.15,-35.71 0,-19.53 14.78,-35.71 35.15,-35.71 20.36,0 35.43,16.18 35.43,35.71 0,19.53 -15.07,35.71 -35.43,35.71zm267.47 -109.64c-24.83,0 -44.36,11.72 -53.01,30.69 -8.09,-18.97 -27.34,-30.69 -53.84,-30.69 -44.64,0 -67.24,32.36 -67.24,70.86l0 72.26 39.62 0 0 -65.84c0,-20.93 8.64,-38.78 30.68,-38.78 21.49,0 30.69,17.58 30.69,38.78l0 65.84 39.62 0 0 -66.12c0,-20.92 9.21,-38.5 30.69,-38.5 21.76,0 30.97,17.85 30.97,39.06l0 65.56 39.61 0 0 -72.26c0,-38.5 -22.87,-70.86 -67.79,-70.86zm160.9 147.03c42.68,0 74.77,-32.92 74.77,-72.82 0,-42.96 -29.58,-73.1 -72.54,-73.1 -13.95,0 -27.06,5.03 -37.39,12.84l0 -72.54 -39.61 0 0 132.8c0,41.85 31.8,72.82 74.77,72.82zm0 -37.39c-20.37,0 -35.16,-15.9 -35.16,-35.43 0,-19.53 14.79,-35.71 35.16,-35.71 20.36,0 35.15,16.18 35.15,35.71 0,19.53 -14.79,35.43 -35.15,35.43zm111.79 -125.26c13.39,0 24.27,-10.88 24.27,-24.56 0,-13.39 -10.88,-24.55 -24.27,-24.55 -13.39,0 -24.55,11.16 -24.55,24.55 0,13.68 11.16,24.56 24.55,24.56zm-19.81 20.64l0 138.1 39.62 0 0 -138.1 -39.62 0zm131.33 141.73c42.4,0 75.04,-32.92 75.04,-73.1 0,-39.61 -32.36,-72.81 -75.04,-72.81 -42.13,0 -74.77,32.92 -74.77,72.81 0,40.18 32.36,73.1 74.77,73.1zm0 -37.11c-20.37,0 -35.16,-16.18 -35.16,-35.71 0,-19.53 14.79,-35.71 35.16,-35.71 20.36,0 35.43,16.18 35.43,35.71 0,19.53 -15.07,35.71 -35.43,35.71zm356.66 37.11c42.41,0 75.05,-32.92 75.05,-73.1 0,-39.61 -32.36,-72.81 -75.05,-72.81 -42.12,0 -74.77,32.92 -74.77,72.81 0,40.18 32.37,73.1 74.77,73.1zm0 -37.11c-20.36,0 -35.15,-16.18 -35.15,-35.71 0,-19.53 14.79,-35.71 35.15,-35.71 20.37,0 35.44,16.18 35.44,35.71 0,19.53 -15.07,35.71 -35.44,35.71zm112.08 -125.26c13.39,0 24.27,-10.88 24.27,-24.56 0,-13.39 -10.88,-24.55 -24.27,-24.55 -13.39,0 -24.55,11.16 -24.55,24.55 0,13.68 11.16,24.56 24.55,24.56zm-20.09 20.64l0 143.96c0,13.67 -8.65,23.16 -26.5,23.16l2.23 37.38c41.57,0 63.89,-24.27 63.89,-59.14l0 -145.36 -39.62 0zm126.58 141.73c29.3,0 52.17,-14.23 64.17,-39.06l-30.41 -15.34c-6.42,12.83 -18.97,20.08 -34.04,20.08 -19.81,0 -34.03,-12.27 -36.82,-30.69l102.66 0 0 -11.71c0,-37.67 -25.38,-70.03 -69.19,-70.03 -42.68,0 -71.7,32.92 -71.7,72.82 0,44.08 32.37,73.93 75.33,73.93zm-35.43 -87.05c2.79,-13.95 14.23,-25.11 31.53,-25.11 16.74,0 28.45,10.88 30.13,25.11l-61.66 0z"/>
    </clipPath>
  <linearGradient id="id2" gradientUnits="userSpaceOnUse" x1="0" y1="134.12" x2="187.81" y2="134.12">
   <stop offset="0" style="stop-opacity:1; stop-color:#654CF0"/>
   <stop offset="1" style="stop-opacity:1; stop-color:#3E3EB5"/>
  </linearGradient>
  <linearGradient id="id3" gradientUnits="userSpaceOnUse" xlink:href="#id2" x1="198.06" y1="134.04" x2="385.87" y2="134.04">
  </linearGradient>
 </defs>
 <g id="Camada_x0020_1">
  <metadata id="CorelCorpID_0Corel-Layer"/>
  <g id="_1381430422080">
   <polygon class="fil0" points="0,135.01 75.6,0.1 154.68,0.1 75.03,137.9 116.89,199.54 153.52,138.5 187.81,197.79 152.95,268.16 76.19,268.16 "/>
   <polygon class="fil1" points="385.87,133.15 310.28,268.06 231.19,268.06 310.85,130.26 268.98,68.62 232.35,129.66 198.06,70.37 232.92,0 309.68,0 "/>
   <path class="fil2" d="M530.5 224.5c32.64,0 63.88,-17.3 77.83,-46.59l-33.2 -18.7c-8.64,16.18 -23.71,26.51 -46.31,26.51 -31.52,0 -53.84,-24.83 -53.84,-58.87 0,-34.04 22.59,-58.87 53.84,-58.87 22.6,0 37.11,10.33 46.31,26.51l33.2 -18.7c-13.95,-29.29 -45.19,-46.59 -77.83,-46.59 -54.69,0 -97.37,43.25 -97.37,97.65 0,54.4 42.68,97.65 97.37,97.65zm938.59 -3.91l0 -74.77 85.65 0 0 74.77 40.74 0 0 -187.76 -40.74 0 0 75.61 -85.65 0 0 -75.61 -40.73 0 0 187.76 40.73 0zm-793.6 3.63c18.97,0 34.04,-7.53 43.8,-19.81l0 16.18 37.67 0 0 -69.47c0,-41.57 -31.81,-72.81 -75.05,-72.81 -42.41,0 -74.77,33.2 -74.77,72.81 0,40.18 28.18,73.1 68.35,73.1zm6.42 -37.11c-20.37,0 -35.15,-16.18 -35.15,-35.71 0,-19.53 14.78,-35.71 35.15,-35.71 20.36,0 35.43,16.18 35.43,35.71 0,19.53 -15.07,35.71 -35.43,35.71zm267.47 -109.64c-24.83,0 -44.36,11.72 -53.01,30.69 -8.09,-18.97 -27.34,-30.69 -53.84,-30.69 -44.64,0 -67.24,32.36 -67.24,70.86l0 72.26 39.62 0 0 -65.84c0,-20.93 8.64,-38.78 30.68,-38.78 21.49,0 30.69,17.58 30.69,38.78l0 65.84 39.62 0 0 -66.12c0,-20.92 9.21,-38.5 30.69,-38.5 21.76,0 30.97,17.85 30.97,39.06l0 65.56 39.61 0 0 -72.26c0,-38.5 -22.87,-70.86 -67.79,-70.86zm160.9 147.03c42.68,0 74.77,-32.92 74.77,-72.82 0,-42.96 -29.58,-73.1 -72.54,-73.1 -13.95,0 -27.06,5.03 -37.39,12.84l0 -72.54 -39.61 0 0 132.8c0,41.85 31.8,72.82 74.77,72.82zm0 -37.39c-20.37,0 -35.16,-15.9 -35.16,-35.43 0,-19.53 14.79,-35.71 35.16,-35.71 20.36,0 35.15,16.18 35.15,35.71 0,19.53 -14.79,35.43 -35.15,35.43zm111.79 -125.26c13.39,0 24.27,-10.88 24.27,-24.56 0,-13.39 -10.88,-24.55 -24.27,-24.55 -13.39,0 -24.55,11.16 -24.55,24.55 0,13.68 11.16,24.56 24.55,24.56zm-19.81 20.64l0 138.1 39.62 0 0 -138.1 -39.62 0zm131.33 141.73c42.4,0 75.04,-32.92 75.04,-73.1 0,-39.61 -32.36,-72.81 -75.04,-72.81 -42.13,0 -74.77,32.92 -74.77,72.81 0,40.18 32.36,73.1 74.77,73.1zm0 -37.11c-20.37,0 -35.16,-16.18 -35.16,-35.71 0,-19.53 14.79,-35.71 35.16,-35.71 20.36,0 35.43,16.18 35.43,35.71 0,19.53 -15.07,35.71 -35.43,35.71zm356.66 37.11c42.41,0 75.05,-32.92 75.05,-73.1 0,-39.61 -32.36,-72.81 -75.05,-72.81 -42.12,0 -74.77,32.92 -74.77,72.81 0,40.18 32.37,73.1 74.77,73.1zm0 -37.11c-20.36,0 -35.15,-16.18 -35.15,-35.71 0,-19.53 14.79,-35.71 35.15,-35.71 20.37,0 35.44,16.18 35.44,35.71 0,19.53 -15.07,35.71 -35.44,35.71zm112.08 -125.26c13.39,0 24.27,-10.88 24.27,-24.56 0,-13.39 -10.88,-24.55 -24.27,-24.55 -13.39,0 -24.55,11.16 -24.55,24.55 0,13.68 11.16,24.56 24.55,24.56zm-20.09 20.64l0 143.96c0,13.67 -8.65,23.16 -26.5,23.16l2.23 37.38c41.57,0 63.89,-24.27 63.89,-59.14l0 -145.36 -39.62 0zm126.58 141.73c29.3,0 52.17,-14.23 64.17,-39.06l-30.41 -15.34c-6.42,12.83 -18.97,20.08 -34.04,20.08 -19.81,0 -34.03,-12.27 -36.82,-30.69l102.66 0 0 -11.71c0,-37.67 -25.38,-70.03 -69.19,-70.03 -42.68,0 -71.7,32.92 -71.7,72.82 0,44.08 32.37,73.93 75.33,73.93zm-35.43 -87.05c2.79,-13.95 14.23,-25.11 31.53,-25.11 16.74,0 28.45,10.88 30.13,25.11l-61.66 0z"/>
   <g style="clip-path:url(#id0)">
   </g>
   <path id="_1" class="fil3" d="M530.5 224.5c32.64,0 63.88,-17.3 77.83,-46.59l-33.2 -18.7c-8.64,16.18 -23.71,26.51 -46.31,26.51 -31.52,0 -53.84,-24.83 -53.84,-58.87 0,-34.04 22.59,-58.87 53.84,-58.87 22.6,0 37.11,10.33 46.31,26.51l33.2 -18.7c-13.95,-29.29 -45.19,-46.59 -77.83,-46.59 -54.69,0 -97.37,43.25 -97.37,97.65 0,54.4 42.68,97.65 97.37,97.65zm938.59 -3.91l0 -74.77 85.65 0 0 74.77 40.74 0 0 -187.76 -40.74 0 0 75.61 -85.65 0 0 -75.61 -40.73 0 0 187.76 40.73 0zm-793.6 3.63c18.97,0 34.04,-7.53 43.8,-19.81l0 16.18 37.67 0 0 -69.47c0,-41.57 -31.81,-72.81 -75.05,-72.81 -42.41,0 -74.77,33.2 -74.77,72.81 0,40.18 28.18,73.1 68.35,73.1zm6.42 -37.11c-20.37,0 -35.15,-16.18 -35.15,-35.71 0,-19.53 14.78,-35.71 35.15,-35.71 20.36,0 35.43,16.18 35.43,35.71 0,19.53 -15.07,35.71 -35.43,35.71zm267.47 -109.64c-24.83,0 -44.36,11.72 -53.01,30.69 -8.09,-18.97 -27.34,-30.69 -53.84,-30.69 -44.64,0 -67.24,32.36 -67.24,70.86l0 72.26 39.62 0 0 -65.84c0,-20.93 8.64,-38.78 30.68,-38.78 21.49,0 30.69,17.58 30.69,38.78l0 65.84 39.62 0 0 -66.12c0,-20.92 9.21,-38.5 30.69,-38.5 21.76,0 30.97,17.85 30.97,39.06l0 65.56 39.61 0 0 -72.26c0,-38.5 -22.87,-70.86 -67.79,-70.86zm160.9 147.03c42.68,0 74.77,-32.92 74.77,-72.82 0,-42.96 -29.58,-73.1 -72.54,-73.1 -13.95,0 -27.06,5.03 -37.39,12.84l0 -72.54 -39.61 0 0 132.8c0,41.85 31.8,72.82 74.77,72.82zm0 -37.39c-20.37,0 -35.16,-15.9 -35.16,-35.43 0,-19.53 14.79,-35.71 35.16,-35.71 20.36,0 35.15,16.18 35.15,35.71 0,19.53 -14.79,35.43 -35.15,35.43zm111.79 -125.26c13.39,0 24.27,-10.88 24.27,-24.56 0,-13.39 -10.88,-24.55 -24.27,-24.55 -13.39,0 -24.55,11.16 -24.55,24.55 0,13.68 11.16,24.56 24.55,24.56zm-19.81 20.64l0 138.1 39.62 0 0 -138.1 -39.62 0zm131.33 141.73c42.4,0 75.04,-32.92 75.04,-73.1 0,-39.61 -32.36,-72.81 -75.04,-72.81 -42.13,0 -74.77,32.92 -74.77,72.81 0,40.18 32.36,73.1 74.77,73.1zm0 -37.11c-20.37,0 -35.16,-16.18 -35.16,-35.71 0,-19.53 14.79,-35.71 35.16,-35.71 20.36,0 35.43,16.18 35.43,35.71 0,19.53 -15.07,35.71 -35.43,35.71zm356.66 37.11c42.41,0 75.05,-32.92 75.05,-73.1 0,-39.61 -32.36,-72.81 -75.05,-72.81 -42.12,0 -74.77,32.92 -74.77,72.81 0,40.18 32.37,73.1 74.77,73.1zm0 -37.11c-20.36,0 -35.15,-16.18 -35.15,-35.71 0,-19.53 14.79,-35.71 35.15,-35.71 20.37,0 35.44,16.18 35.44,35.71 0,19.53 -15.07,35.71 -35.44,35.71zm112.08 -125.26c13.39,0 24.27,-10.88 24.27,-24.56 0,-13.39 -10.88,-24.55 -24.27,-24.55 -13.39,0 -24.55,11.16 -24.55,24.55 0,13.68 11.16,24.56 24.55,24.56zm-20.09 20.64l0 143.96c0,13.67 -8.65,23.16 -26.5,23.16l2.23 37.38c41.57,0 63.89,-24.27 63.89,-59.14l0 -145.36 -39.62 0zm126.58 141.73c29.3,0 52.17,-14.23 64.17,-39.06l-30.41 -15.34c-6.42,12.83 -18.97,20.08 -34.04,20.08 -19.81,0 -34.03,-12.27 -36.82,-30.69l102.66 0 0 -11.71c0,-37.67 -25.38,-70.03 -69.19,-70.03 -42.68,0 -71.7,32.92 -71.7,72.82 0,44.08 32.37,73.93 75.33,73.93zm-35.43 -87.05c2.79,-13.95 14.23,-25.11 31.53,-25.11 16.74,0 28.45,10.88 30.13,25.11l-61.66 0z"/>
   <g style="clip-path:url(#id1)">
    <path id="_2" class="fil4 str0" d="M433.13 12.74l1541.25 274.25m0 -274.25l-1541.25 274.25"/>
   </g>
  </g>
 </g>
</svg>
